<?xml version="1.0" encoding="utf-8"?>
<!-- Generator: Adobe Illustrator 21.0.2, SVG Export Plug-In . SVG Version: 6.00 Build 0)  -->
<svg version="1.1" id="Layer_1" xmlns="http://www.w3.org/2000/svg" xmlns:xlink="http://www.w3.org/1999/xlink" x="0px" y="0px"
	 viewBox="0 0 139.3 183" style="enable-background:new 0 0 139.3 183;" xml:space="preserve">
<style type="text/css">
	.st0{display:none;}
	.st1{fill:none;stroke:#981B1E;stroke-width:5;stroke-miterlimit:10;}
	.st2{fill:#FFFFFF;stroke:#000000;stroke-miterlimit:10;}
	.st3{fill:#475A84;}
	.st4{fill:none;stroke:#000000;stroke-miterlimit:10;}
	.st5{fill:#FFFFFF;}
	.st6{fill:none;stroke:#FFFFFF;stroke-width:0.25;stroke-miterlimit:10;}
	.st7{fill:#FFFFFF;stroke:#981B1E;stroke-miterlimit:10;}
	.st8{fill:none;stroke:#981B1E;stroke-width:2;stroke-miterlimit:10;}
	.st9{stroke:#000000;stroke-miterlimit:10;}
	.st10{fill:#981B1E;}
	.st11{enable-background:new    ;}
</style>
<g id="Layer_2" class="st0">
	
		<image style="display:inline;overflow:visible;enable-background:new    ;" width="130" height="183" xlink:href="2BE14FCF.png"  transform="matrix(1 0 0 1 9.3375 0)">
	</image>
</g>
<g id="Layer_1_1_">
	<path class="st1" d="M127.4,99c0,29-23.5,52.5-52.5,52.5S22.4,128,22.4,99s23.5-52.5,52.5-52.5S127.4,70,127.4,99z"/>
	<path class="st2" d="M81.7,29.3c-5.2,0-10.4,0-15.7,0c-0.5,11.9-1,23.8-1.5,35.8c6.1-0.1,12.1-0.1,18.2-0.2
		C82.4,53,82.1,41.1,81.7,29.3z"/>
	<path class="st3" d="M47.4,77.1c0.9-1.2,1.8-2.4,2.8-3.7c-3.3-2-6.5-4-9.8-6C42.7,70.6,45.1,73.9,47.4,77.1z"/>
	<path class="st3" d="M98.1,73.8c1.2,0.9,2.4,1.8,3.7,2.8c2-3.3,4-6.5,6-9.8C104.5,69.1,101.3,71.4,98.1,73.8z"/>
	<path class="st3" d="M100.7,121.5c-0.9,1.2-1.8,2.4-2.8,3.7c3.3,2,6.5,4,9.8,6C105.3,128,103,124.8,100.7,121.5z"/>
	<path class="st3" d="M50.4,123.9c-1.2-0.9-2.4-1.8-3.7-2.8c-2,3.3-4,6.5-6,9.8C43.9,128.5,47.1,126.2,50.4,123.9z"/>
	<path class="st2" d="M82.1,131.3c-5.5-0.4-10.9-0.8-16.4-1.3c2.8,14.9,5.5,29.8,8.3,44.7C76.6,160.3,79.3,145.8,82.1,131.3z"/>
	<path class="st3" d="M82.1,131.3c-2.7,0.2-5.5,0.5-8.2,0.7c0,13.3,0,26.6,0.1,40C76.6,158.5,79.3,144.9,82.1,131.3z"/>
	<path class="st4" d="M130.7,112c-7-0.3-14.1-0.6-21.1-0.9c-5.1,15-19.3,25.1-35.1,25.1s-30-10-35.3-25c-6.7,0.3-13.5,0.5-20.2,0.8
		c1-1.4,4.2-6.3,3.8-13.1c-0.3-5.4-2.7-9.2-3.8-10.7c6.5,0.5,13.1,1.1,19.6,1.6c4.2-16.1,18.7-27.5,35.3-27.6
		c16.7-0.2,31.5,11.1,35.9,27.3c7-0.3,14.1-0.5,21.1-0.8c-1.1,1.7-3.3,5.6-3.5,11C127.2,105.8,129.7,110.3,130.7,112z"/>
	<path class="st5" d="M131,111.5c-7.2-0.3-14.5-0.6-21.7-0.9c-5,14.9-19,25.1-34.8,25.1s-29.9-10.1-34.9-25
		c-6.9,0.3-13.9,0.5-20.8,0.8c0-7.6,0-15.2,0-22.8c6.8,0.5,13.5,1.1,20.3,1.6c4-16.2,18.5-27.6,35.1-27.7
		c16.5,0,31.1,11.2,35.2,27.3c7.3-0.3,14.5-0.5,21.8-0.8C131.1,96.6,131.1,104,131,111.5z"/>
	<path class="st5" d="M0,77.6"/>
	<ellipse cx="79.3" cy="56.3" rx="0.6" ry="2.7"/>
	<ellipse cx="69" cy="45.8" rx="0.6" ry="2.7"/>
	<g>
		<path d="M78.7,24.9H68.5v-8.7c0.8-0.5,2.6-1.4,5.1-1.4s4.3,1,5,1.4C78.7,19.1,78.7,22,78.7,24.9z"/>
		<line class="st6" x1="73.7" y1="15.3" x2="73.7" y2="24.3"/>
		<line class="st6" x1="74.7" y1="15.4" x2="74.7" y2="24.4"/>
		<line class="st6" x1="72.7" y1="15.4" x2="72.7" y2="24.4"/>
		<line class="st6" x1="75.7" y1="15.6" x2="75.7" y2="24.6"/>
		<line class="st6" x1="71.7" y1="15.6" x2="71.7" y2="24.6"/>
		<line class="st6" x1="76.7" y1="15.8" x2="76.7" y2="24.8"/>
		<line class="st6" x1="70.7" y1="15.8" x2="70.7" y2="24.8"/>
		<line class="st6" x1="77.7" y1="16.2" x2="77.7" y2="25.2"/>
		<line class="st6" x1="69.7" y1="16.2" x2="69.7" y2="25.2"/>
		<line class="st6" x1="78.2" y1="19.8" x2="69.2" y2="19.8"/>
		<line class="st6" x1="78.2" y1="18.8" x2="69.2" y2="18.8"/>
		<line class="st6" x1="78.2" y1="17.8" x2="69.2" y2="17.8"/>
		<line class="st6" x1="78.2" y1="16.8" x2="69.2" y2="16.8"/>
		<line class="st6" x1="78.2" y1="20.8" x2="69.2" y2="20.8"/>
		<line class="st6" x1="78.2" y1="21.8" x2="69.2" y2="21.8"/>
		<line class="st6" x1="78.2" y1="22.8" x2="69.2" y2="22.8"/>
	</g>
	<g>
		<path class="st7" d="M81.3,27.8c-4.9,0-9.7,0-14.6,0c-0.4-0.6-0.8-1.3-0.6-1.9c0.6-1.9,5.3-1.9,7.6-2c2.7,0,6.9-0.1,7.7,2
			C81.7,26.6,81.5,27.3,81.3,27.8z"/>
		<line class="st8" x1="66.8" y1="25.2" x2="69.9" y2="28.3"/>
		<line class="st8" x1="81" y1="25.2" x2="77.9" y2="28.3"/>
		<line class="st8" x1="70.7" y1="24.1" x2="71.8" y2="28.3"/>
		<line class="st8" x1="77.1" y1="24" x2="76" y2="28.2"/>
		<line class="st8" x1="73.8" y1="23.7" x2="73.8" y2="28.1"/>
	</g>
	<path class="st9" d="M81.1,29.2c-4.7,0-9.4,0-14.1,0c-1.2-0.4-2.1-0.7-2-1.1c0.3-1.4,17.5-1.5,17.8,0
		C82.8,28.4,82.1,28.8,81.1,29.2z"/>
	<path class="st10" d="M78.7,16.5C78,16.1,76.2,15,73.6,15s-4.4,1.1-5.1,1.5c0-0.1-0.1-0.3-0.2-0.5c-0.2-0.2-0.3-0.2-0.4-0.3
		c-0.3-0.3,0.7-2.2,2.7-3.5c0.7-0.4,1.6-1.1,3-1.1c1.7,0,2.9,0.9,3.6,1.3c1.6,1.2,2.4,2.8,2.1,3.1c-0.1,0.1-0.3,0.1-0.4,0.3
		C78.7,16.1,78.7,16.3,78.7,16.5z"/>
	<path class="st10" d="M73.7,12.5c-0.2,0-0.3,0-0.5,0V8.7c0.1,0,0.2,0,0.3,0C74,9,74.5,9.2,75,9.5c-0.5,0.3-0.9,0.5-1.4,0.8
		C73.7,11,73.7,11.7,73.7,12.5z"/>
	<path class="st5" d="M82.8,35.3c-6.1,0-12.2,0-18.3,0c-0.1,2.7-0.2,5.5-0.3,8.3c6.3,0,12.6,0,19,0C83,40.8,82.9,38.1,82.8,35.3z"/>
	<g>
		<g>
			<path d="M41.5,45.8c-0.4,0.1-0.7,0.2-1,0.4c-0.4,0.3-0.7,0.6-0.9,1s-0.3,0.8-0.3,1.2s0.1,0.8,0.4,1.1c0.2,0.3,0.5,0.5,0.9,0.6
				s0.8,0.2,1.2,0.1c0.4-0.1,0.8-0.2,1.2-0.5c0.3-0.2,0.5-0.4,0.7-0.7s0.3-0.6,0.4-0.9c0.2,0,0.5,0.1,0.7,0.1
				c-0.1,0.4-0.3,0.8-0.6,1.2s-0.6,0.7-0.9,0.9c-0.5,0.3-1,0.6-1.6,0.7s-1.1,0.1-1.6-0.1s-0.9-0.4-1.3-0.9c-0.3-0.4-0.5-0.9-0.5-1.4
				s0.1-1.1,0.4-1.6s0.7-1,1.3-1.4c0.4-0.3,0.8-0.5,1.3-0.6s0.9-0.2,1.3-0.1c-0.1,0.3-0.1,0.5-0.2,0.8
				C42.2,45.7,41.8,45.7,41.5,45.8z"/>
			<path d="M47.1,44.1c0.4,0.1,0.7,0.3,0.9,0.7c0.4,0.7,0.7,1.3,1.1,2c-0.2,0.1-0.4,0.2-0.6,0.3c-0.3-0.6-0.7-1.2-1-1.9
				c-0.2-0.3-0.4-0.4-0.6-0.5c-0.3-0.1-0.6,0-0.9,0.2c-0.4,0.2-0.6,0.5-0.7,0.8s0,0.7,0.2,1c0.3,0.5,0.6,1,0.9,1.6
				c-0.2,0.1-0.4,0.3-0.6,0.4c-0.9-1.5-1.8-2.9-2.8-4.4c0.2-0.1,0.4-0.3,0.7-0.4c0.4,0.7,0.8,1.3,1.2,2c0-0.6,0.3-1.1,1-1.5
				C46.3,44.1,46.7,44,47.1,44.1z"/>
			<path d="M52,45.3c-0.1-0.2-0.1-0.3-0.2-0.5c-0.1,0.5-0.5,0.8-1.1,1.1c-0.3,0.1-0.5,0.2-0.7,0.2s-0.4,0-0.6-0.1s-0.3-0.2-0.4-0.4
				c-0.2-0.3-0.2-0.6,0-0.9s0.5-0.6,0.9-0.8s0.8-0.4,1.2-0.6c0-0.1,0-0.1-0.1-0.2c-0.1-0.2-0.3-0.4-0.5-0.4c-0.2-0.1-0.5,0-0.8,0.2
				c-0.4,0.2-0.7,0.5-1,0.9c-0.2-0.1-0.3-0.2-0.5-0.3c0.2-0.3,0.4-0.5,0.6-0.7s0.5-0.4,0.8-0.5c0.5-0.2,0.9-0.3,1.3-0.2
				c0.4,0.1,0.6,0.3,0.8,0.7c0.3,0.7,0.7,1.5,1,2.2C52.5,45.1,52.3,45.2,52,45.3z M51.4,44.9c0.2-0.2,0.2-0.5,0.1-0.7
				c-0.1-0.1-0.1-0.2-0.2-0.3c-0.4,0.2-0.7,0.3-1.1,0.5c-0.3,0.1-0.5,0.3-0.6,0.4c-0.1,0.2-0.1,0.3,0,0.5s0.2,0.3,0.4,0.3
				s0.4,0,0.7-0.1C51,45.3,51.2,45.1,51.4,44.9z"/>
			<path d="M55.5,40.4c0.4,0.1,0.6,0.4,0.7,0.9c0.2,0.7,0.5,1.4,0.7,2.2c-0.2,0.1-0.4,0.2-0.7,0.2c-0.2-0.7-0.5-1.3-0.7-2
				c-0.1-0.3-0.3-0.5-0.5-0.6s-0.5-0.1-0.9,0s-0.6,0.4-0.7,0.6c-0.1,0.3-0.2,0.6-0.1,0.9c0.2,0.6,0.5,1.2,0.7,1.8
				c-0.2,0.1-0.4,0.2-0.7,0.3c-0.5-1.1-1-2.3-1.4-3.4c0.2-0.1,0.5-0.2,0.7-0.3c0.1,0.2,0.2,0.5,0.3,0.7c0.1-0.6,0.5-1,1.2-1.3
				C54.7,40.2,55.1,40.2,55.5,40.4z"/>
			<path d="M59.7,42.3c-0.2,0.3-0.5,0.4-0.8,0.5s-0.6,0.1-0.8,0s-0.4-0.3-0.5-0.7c-0.2-0.7-0.4-1.3-0.6-2c-0.2,0.1-0.4,0.1-0.6,0.2
				c-0.1-0.2-0.1-0.3-0.2-0.5c0.2-0.1,0.4-0.1,0.6-0.2c-0.1-0.3-0.2-0.6-0.3-0.9c0.2-0.1,0.5-0.2,0.7-0.2c0.1,0.3,0.2,0.6,0.3,0.9
				c0.4-0.1,0.8-0.3,1.2-0.4c0,0.2,0.1,0.3,0.1,0.5c-0.4,0.1-0.8,0.2-1.2,0.4c0.2,0.6,0.4,1.2,0.6,1.8c0.1,0.2,0.1,0.3,0.2,0.4
				s0.2,0.1,0.4,0s0.4-0.2,0.6-0.3C59.5,42,59.6,42.1,59.7,42.3z"/>
			<path d="M60.6,38.6c0.2-0.2,0.5-0.3,0.8-0.4c0,0.2,0.1,0.4,0.1,0.6c-0.4,0.1-0.7,0.3-0.9,0.5c-0.2,0.3-0.3,0.6-0.2,0.9
				c0.2,0.6,0.3,1.3,0.5,1.9c-0.2,0.1-0.5,0.1-0.7,0.2c-0.3-1.2-0.7-2.4-1-3.6c0.2-0.1,0.5-0.1,0.7-0.2c0.1,0.3,0.1,0.5,0.2,0.8
				C60.3,39.1,60.4,38.8,60.6,38.6z"/>
			<path d="M63.7,42.7c-0.2,0.2-0.4,0.3-0.7,0.4c-0.2,0-0.3,0-0.5,0c-0.1,0-0.3-0.1-0.4-0.1c0.1-0.2,0.1-0.4,0.2-0.6
				c0.2,0.1,0.4,0.1,0.6,0.1c0.3-0.1,0.5-0.3,0.6-0.6c0-0.1,0.1-0.2,0.1-0.4c-0.8-1.1-1.6-2.2-2.5-3.2c0.3-0.1,0.5-0.1,0.8-0.2
				c0.7,0.9,1.3,1.7,1.9,2.6c0.2-1,0.4-2.1,0.7-3.1c0.3,0,0.5-0.1,0.8-0.1c-0.4,1.5-0.8,3-1.1,4.5C64,42.3,63.9,42.6,63.7,42.7z"/>
			<path d="M68.8,35.1c0.3,0,0.6-0.1,0.9-0.1c0.1,1.9,0.3,3.7,0.5,5.6c-0.3,0-0.5,0-0.8,0.1C69.1,38.9,68.9,37,68.8,35.1z"/>
			<path d="M72.7,37.4c-0.2,0-0.4-0.1-0.6-0.1s-0.4,0.1-0.5,0.1c-0.1,0.1-0.2,0.2-0.2,0.3s0.1,0.3,0.2,0.3c0.2,0.1,0.4,0.1,0.7,0.2
				c0.3,0.1,0.5,0.1,0.7,0.2s0.3,0.2,0.5,0.3c0.1,0.1,0.2,0.3,0.2,0.6s-0.1,0.6-0.4,0.8s-0.6,0.3-1,0.3c-0.3,0-0.6,0-0.9-0.1
				s-0.5-0.2-0.7-0.3c0.1-0.2,0.2-0.3,0.2-0.5c0.2,0.1,0.4,0.2,0.6,0.3s0.5,0.1,0.7,0.1s0.4-0.1,0.6-0.1c0.1-0.1,0.2-0.2,0.2-0.4
				s-0.1-0.3-0.2-0.4c-0.2-0.1-0.4-0.2-0.7-0.2c-0.3-0.1-0.5-0.1-0.7-0.2s-0.3-0.2-0.5-0.3c-0.1-0.1-0.2-0.3-0.2-0.5
				c0-0.3,0.1-0.6,0.4-0.8s0.6-0.3,1.1-0.3c0.3,0,0.5,0,0.8,0.1c0.2,0.1,0.5,0.1,0.6,0.2c-0.1,0.2-0.2,0.3-0.3,0.5
				C73.1,37.5,72.9,37.4,72.7,37.4z"/>
			<path d="M74.2,35.3c0.3,0,0.5,0,0.8,0c0,1.7,0,3.5,0,5.2c-0.2,0-0.5,0-0.7,0C74.2,38.7,74.2,37,74.2,35.3z"/>
			<path d="M78.4,40.6c0-0.2,0-0.3,0-0.5c-0.3,0.3-0.8,0.5-1.4,0.5c-0.3,0-0.5-0.1-0.7-0.2s-0.4-0.2-0.5-0.4s-0.2-0.4-0.2-0.6
				c0-0.3,0.1-0.6,0.4-0.8s0.7-0.3,1.1-0.3s0.9,0,1.3,0.1c0-0.1,0-0.1,0-0.2c0-0.3-0.1-0.5-0.2-0.6c-0.2-0.2-0.4-0.2-0.8-0.3
				c-0.4,0-0.9,0.1-1.3,0.3c-0.1-0.2-0.2-0.3-0.3-0.5c0.3-0.2,0.6-0.3,0.9-0.3c0.3-0.1,0.6-0.1,0.9-0.1c0.5,0,0.9,0.2,1.2,0.4
				c0.3,0.2,0.4,0.6,0.4,1c-0.1,0.8-0.1,1.6-0.2,2.4C78.8,40.6,78.6,40.6,78.4,40.6z M78,39.9c0.2-0.1,0.4-0.3,0.5-0.6
				c0-0.1,0-0.2,0-0.4c-0.4,0-0.8-0.1-1.2-0.1c-0.3,0-0.6,0-0.7,0.1c-0.2,0.1-0.2,0.2-0.2,0.4s0.1,0.3,0.2,0.5
				c0.2,0.1,0.4,0.2,0.6,0.2C77.5,40,77.7,40,78,39.9z"/>
			<path d="M83.7,37.9c0.2,0.3,0.3,0.7,0.2,1.1c-0.1,0.8-0.3,1.5-0.4,2.3c-0.2,0-0.5-0.1-0.7-0.1c0.1-0.7,0.2-1.4,0.3-2.1
				c0-0.3,0-0.6-0.2-0.8s-0.4-0.3-0.8-0.4c-0.4,0-0.7,0-0.9,0.2c-0.3,0.2-0.4,0.4-0.5,0.8c-0.1,0.7-0.1,1.3-0.2,2
				c-0.2,0-0.5-0.1-0.7-0.1c0.1-1.2,0.2-2.5,0.4-3.7c0.2,0,0.5,0.1,0.7,0.1c0,0.3-0.1,0.5-0.1,0.8c0.3-0.5,0.9-0.7,1.7-0.6
				C83.1,37.4,83.4,37.6,83.7,37.9z"/>
			<path d="M89.3,37.2c-0.4,1.7-0.9,3.4-1.3,5c-0.2-0.1-0.5-0.1-0.7-0.2c0.1-0.2,0.1-0.5,0.2-0.7c-0.2,0.2-0.4,0.3-0.7,0.4
				c-0.3,0.1-0.6,0.1-0.9,0c-0.4-0.1-0.7-0.2-0.9-0.4c-0.3-0.2-0.4-0.5-0.5-0.8s-0.1-0.6-0.1-1c0.1-0.4,0.2-0.7,0.4-0.9
				c0.2-0.2,0.5-0.4,0.8-0.5s0.7-0.1,1.1,0s0.7,0.2,0.9,0.4c0.2,0.2,0.4,0.4,0.5,0.7c0.2-0.7,0.4-1.4,0.5-2.2
				C88.8,37,89,37.1,89.3,37.2z M86.8,41.2c0.2-0.1,0.4-0.2,0.6-0.3c0.2-0.2,0.3-0.4,0.3-0.6c0.1-0.2,0.1-0.5,0-0.7
				s-0.2-0.4-0.4-0.6c-0.2-0.2-0.4-0.3-0.7-0.3c-0.3-0.1-0.5-0.1-0.8,0c-0.2,0.1-0.4,0.2-0.6,0.4s-0.3,0.4-0.3,0.6s0,0.5,0,0.7
				c0.1,0.2,0.2,0.4,0.4,0.6c0.2,0.2,0.4,0.3,0.7,0.3C86.4,41.3,86.6,41.3,86.8,41.2z"/>
			<path d="M93.1,37.9c1.7,0.5,3.3,1.2,4.9,1.9c-0.1,0.2-0.2,0.4-0.3,0.6c-0.7-0.3-1.3-0.6-2-0.8c-0.6,1.5-1.2,3-1.8,4.6
				c-0.3-0.1-0.5-0.2-0.8-0.3c0.6-1.5,1.1-3.1,1.7-4.6c-0.7-0.2-1.3-0.5-2-0.7C93,38.3,93.1,38.1,93.1,37.9z"/>
			<path d="M100.1,43.1c0.2,0.3,0.4,0.6,0.4,0.9s0,0.7-0.2,1s-0.4,0.6-0.7,0.7c-0.3,0.2-0.6,0.3-1,0.3s-0.7-0.1-1.1-0.3
				s-0.7-0.4-0.9-0.7c-0.2-0.3-0.4-0.6-0.4-0.9c-0.1-0.3,0-0.7,0.1-1s0.4-0.6,0.6-0.8c0.3-0.2,0.6-0.3,1-0.3s0.8,0.1,1.1,0.3
				C99.6,42.5,99.9,42.8,100.1,43.1z M98.2,42.7c-0.2,0-0.5,0.1-0.7,0.2s-0.3,0.3-0.4,0.5S97,43.9,97,44.1s0.1,0.4,0.3,0.6
				c0.1,0.2,0.3,0.3,0.6,0.5c0.2,0.1,0.5,0.2,0.7,0.2s0.5-0.1,0.6-0.2c0.2-0.1,0.4-0.3,0.5-0.5s0.2-0.5,0.1-0.7
				c0-0.2-0.1-0.4-0.2-0.6S99.3,43,99,42.9C98.7,42.7,98.5,42.7,98.2,42.7z"/>
			<path d="M105.1,45.6c-0.7,1-1.3,2.1-2,3.1c-0.2-0.1-0.4-0.3-0.6-0.4c0.1-0.2,0.3-0.4,0.4-0.7c-0.5,0.3-1.1,0.3-1.7-0.1
				c-0.4-0.2-0.7-0.5-0.8-0.9c-0.1-0.4-0.1-0.7,0.1-1.1c0.4-0.7,0.7-1.3,1.1-2c0.2,0.1,0.5,0.2,0.7,0.4c-0.3,0.6-0.7,1.2-1,1.9
				c-0.2,0.3-0.2,0.5-0.1,0.8c0.1,0.2,0.3,0.4,0.6,0.6c0.3,0.2,0.7,0.2,1,0.2c0.3-0.1,0.6-0.3,0.8-0.6c0.3-0.5,0.6-1,0.9-1.6
				C104.6,45.3,104.8,45.4,105.1,45.6z"/>
			<path d="M107,47.1c0.3,0,0.6,0.2,0.9,0.4c-0.1,0.2-0.2,0.3-0.4,0.5c-0.4-0.3-0.7-0.4-1.1-0.4c-0.3,0-0.6,0.2-0.9,0.4
				c-0.4,0.5-0.7,1.1-1.1,1.6c-0.2-0.1-0.4-0.3-0.6-0.4c0.7-1,1.4-2.1,2-3.1c0.2,0.1,0.4,0.3,0.6,0.4c-0.1,0.2-0.3,0.4-0.4,0.7
				C106.4,47.1,106.7,47,107,47.1z"/>
			<path d="M109.3,49.3c-0.1-0.2-0.3-0.3-0.4-0.4c-0.2-0.1-0.4-0.2-0.5-0.2c-0.2,0-0.3,0-0.4,0.1s-0.1,0.3,0,0.4
				c0.1,0.2,0.2,0.4,0.4,0.6c0.2,0.2,0.3,0.4,0.4,0.6s0.2,0.4,0.2,0.6s-0.1,0.4-0.2,0.6c-0.2,0.3-0.5,0.4-0.9,0.3
				c-0.3,0-0.7-0.2-1-0.5c-0.2-0.2-0.5-0.4-0.6-0.6c-0.2-0.2-0.3-0.5-0.4-0.7c0.2-0.1,0.3-0.2,0.5-0.2c0.1,0.2,0.2,0.4,0.3,0.7
				c0.2,0.2,0.3,0.4,0.5,0.5s0.4,0.2,0.5,0.3c0.2,0,0.3,0,0.4-0.1s0.1-0.3,0-0.4c-0.1-0.2-0.2-0.4-0.4-0.6c-0.2-0.2-0.3-0.4-0.4-0.6
				s-0.2-0.3-0.2-0.5s0-0.4,0.2-0.6c0.2-0.3,0.5-0.4,0.8-0.4s0.7,0.2,1.1,0.5c0.2,0.2,0.4,0.3,0.6,0.6c0.2,0.2,0.3,0.4,0.4,0.6
				c-0.2,0.1-0.4,0.1-0.5,0.2C109.6,49.6,109.4,49.4,109.3,49.3z"/>
		</g>
	</g>
	<g class="st11">
		<path class="st10" d="M51.4,75.6l3.8,7.9l3.8-7.9h2.3v11.9h-1.8v-8.9l-3.7,7.6h-1.3l-3.7-7.6v8.9H49V75.6H51.4z"/>
	</g>
	<g class="st11">
		<path class="st10" d="M68.7,87.5v-1c-0.6,0.8-1.6,1.1-2.8,1.1c-1.8,0-2.9-1.1-2.9-2.6c0-1.6,1.1-2.5,3.2-2.6h2.5v-0.3
			c0-1.1-0.7-1.7-2-1.7c-0.8,0-1.6,0.3-2.5,0.9L63.5,80c1.2-0.7,2-1.1,3.6-1.1c2.1,0,3.4,1.1,3.4,3v5.6H68.7z M68.7,84.5v-0.8h-2.3
			c-1.2,0-1.7,0.3-1.7,1.1c0,0.8,0.6,1.3,1.6,1.3C67.6,86.1,68.6,85.5,68.7,84.5z"/>
		<path class="st10" d="M77.5,78.9v1.8c-1.7-0.1-2.7,0.9-2.9,2.4v4.4h-1.8V79h1.8v1.7C75.2,79.5,76.2,78.9,77.5,78.9z"/>
		<path class="st10" d="M81,76.6c0,0.6-0.5,1.1-1.1,1.1s-1.1-0.5-1.1-1.1c0-0.7,0.5-1.1,1.1-1.1S81,75.9,81,76.6z M80.8,79v8.5H79
			V79H80.8z"/>
		<path class="st10" d="M91.5,82.2v5.3h-1.8v-4.8c0-1.3-0.8-2.1-2-2.1c-1.4,0-2.2,1-2.4,2.3v4.5h-1.8V79h1.8v1.6
			c0.6-1.2,1.7-1.7,3.1-1.7C90.3,78.9,91.5,80.2,91.5,82.2z"/>
		<path class="st10" d="M101.2,84h-6.3c0.3,1.3,1.3,2.1,2.6,2.1c0.9,0,1.7-0.4,2.4-1l1,1c-0.8,0.9-2,1.4-3.5,1.4
			c-2.6,0-4.3-1.7-4.3-4.3c0-2.6,1.7-4.3,4.2-4.3C100.2,78.9,101.4,80.9,101.2,84z M99.7,82.6c-0.1-1.4-1-2.2-2.3-2.2
			s-2.3,0.8-2.4,2.2H99.7z"/>
	</g>
	<g class="st11">
		<path class="st10" d="M45.4,92.6v5.2h6.2v-5.2h2v11.9h-2v-4.9h-6.2v4.9h-2V92.6H45.4z"/>
	</g>
	<g class="st11">
		<path class="st10" d="M62.9,101h-6.3c0.3,1.3,1.3,2.1,2.6,2.1c0.9,0,1.7-0.4,2.4-1l1,1c-0.8,0.9-2,1.4-3.5,1.4
			c-2.6,0-4.3-1.7-4.3-4.3c0-2.6,1.7-4.3,4.2-4.3C61.9,95.9,63.1,97.9,62.9,101z M61.3,99.6c-0.1-1.4-1-2.2-2.3-2.2
			s-2.3,0.8-2.4,2.2H61.3z"/>
		<path class="st10" d="M69.4,95.9v1.8c-1.7-0.1-2.7,0.9-2.9,2.4v4.5h-1.8V96h1.8v1.7C67.1,96.5,68.1,95.9,69.4,95.9z"/>
		<path class="st10" d="M72.9,93.6c0,0.6-0.5,1.1-1.1,1.1s-1.1-0.5-1.1-1.1c0-0.7,0.5-1.1,1.1-1.1S72.9,92.9,72.9,93.6z M72.7,96
			v8.5h-1.8V96H72.7z"/>
		<path class="st10" d="M80.1,104c-0.7,0.4-1.3,0.6-2.1,0.6c-1.3,0-2.3-0.7-2.3-2.5v-4.4h-1.2v-1.4h1.2V94h1.8v2.3H80v1.4h-2.5v4.1
			c0,0.9,0.3,1.2,0.9,1.2c0.4,0,0.8-0.1,1.3-0.4L80.1,104z"/>
		<path class="st10" d="M86.8,104.5v-1c-0.6,0.8-1.6,1.1-2.8,1.1c-1.8,0-2.9-1.1-2.9-2.6c0-1.6,1.1-2.5,3.2-2.6h2.5v-0.3
			c0-1.1-0.7-1.7-2-1.7c-0.8,0-1.6,0.3-2.5,0.9L81.6,97c1.2-0.7,2-1.1,3.6-1.1c2.1,0,3.4,1.1,3.4,3v5.6H86.8z M86.8,101.5v-0.8h-2.3
			c-1.2,0-1.7,0.3-1.7,1.1c0,0.8,0.6,1.3,1.6,1.3C85.7,103.1,86.7,102.5,86.8,101.5z"/>
		<path class="st10" d="M98.5,96v7.7c0,2.4-1.7,4-4.3,4c-1.3,0-2.4-0.4-3.5-1.1l0.8-1.3c0.8,0.6,1.6,0.9,2.6,0.9
			c1.6,0,2.6-0.9,2.6-2.4v-1.1c-0.6,0.9-1.5,1.4-2.8,1.4c-2.3,0-3.8-1.7-3.8-4.1s1.5-4,3.7-4c1.3,0,2.2,0.5,2.8,1.4V96H98.5z
			 M96.7,100c0-1.5-1-2.6-2.4-2.6s-2.4,1.1-2.4,2.6s1,2.6,2.4,2.6C95.7,102.7,96.7,101.6,96.7,100z"/>
		<path class="st10" d="M108.3,101H102c0.3,1.3,1.3,2.1,2.6,2.1c0.9,0,1.7-0.4,2.4-1l1,1c-0.8,0.9-2,1.4-3.5,1.4
			c-2.6,0-4.3-1.7-4.3-4.3c0-2.6,1.7-4.3,4.2-4.3C107.4,95.9,108.5,97.9,108.3,101z M106.8,99.6c-0.1-1.4-1-2.2-2.3-2.2
			s-2.3,0.8-2.4,2.2H106.8z"/>
	</g>
	<g class="st11">
		<path class="st10" d="M51.9,111.4c-1.1,0-1.9,0.4-1.9,1.2c0,2.6,6.3,1.2,6.3,5.5c0,2.1-1.8,3.4-4.4,3.4c-1.8,0-3.6-0.8-4.8-1.9
			l0.9-1.7c1.2,1.1,2.7,1.7,3.9,1.7c1.4,0,2.2-0.5,2.2-1.4c0-2.7-6.3-1.2-6.3-5.4c0-2,1.7-3.3,4.2-3.3c1.5,0,3,0.5,4.1,1.2l-0.8,1.8
			C54,111.7,52.8,111.4,51.9,111.4z"/>
	</g>
	<g class="st11">
		<path class="st10" d="M65.5,117.3c0,2.6-1.8,4.3-4.3,4.3c-2.6,0-4.4-1.8-4.4-4.3c0-2.6,1.8-4.3,4.4-4.3
			C63.7,112.9,65.5,114.7,65.5,117.3z M58.6,117.3c0,1.6,1.1,2.8,2.6,2.8s2.5-1.1,2.5-2.8c0-1.6-1.1-2.8-2.5-2.8
			C59.7,114.5,58.6,115.6,58.6,117.3z"/>
		<path class="st10" d="M70.9,114.6c-1.4,0-2.5,1.1-2.5,2.7s1,2.7,2.5,2.7c1.1,0,1.9-0.4,2.5-1l1,1c-0.8,1-2,1.6-3.5,1.6
			c-2.5,0-4.2-1.7-4.2-4.3c0-2.6,1.7-4.3,4.2-4.3c1.5,0,2.7,0.5,3.5,1.4l-1,1.2C72.7,114.9,71.9,114.5,70.9,114.6z"/>
		<path class="st10" d="M78.2,110.6c0,0.6-0.5,1.1-1.1,1.1s-1.1-0.5-1.1-1.1c0-0.7,0.5-1.1,1.1-1.1S78.2,109.9,78.2,110.6z M78,113
			v8.5h-1.8V113H78z"/>
		<path class="st10" d="M88,118h-6.3c0.3,1.3,1.3,2.1,2.6,2.1c0.9,0,1.7-0.4,2.4-1l1,1c-0.8,0.9-2,1.4-3.5,1.4
			c-2.6,0-4.3-1.7-4.3-4.3c0-2.6,1.7-4.3,4.2-4.3C87.1,112.9,88.2,114.9,88,118z M86.5,116.6c-0.1-1.4-1-2.2-2.3-2.2
			s-2.3,0.8-2.4,2.2H86.5z"/>
		<path class="st10" d="M94.6,121c-0.7,0.4-1.3,0.6-2.1,0.6c-1.3,0-2.3-0.7-2.3-2.5v-4.4H89v-1.4h1.2V111H92v2.3h2.5v1.4H92v4.1
			c0,0.9,0.3,1.2,0.9,1.2c0.4,0,0.8-0.1,1.3-0.4L94.6,121z"/>
		<path class="st10" d="M96.9,124.7c-0.8,0-1.3-0.2-1.9-0.7l0.8-1.4c0.4,0.3,0.7,0.4,1.1,0.4c0.5,0,1-0.3,1.3-0.9l0.3-0.6l-3.5-8.4
			h1.9l2.5,6.5l2.3-6.5h1.8l-3.8,9.7C99,124,98.1,124.7,96.9,124.7z"/>
	</g>
</g>
</svg>
