<?xml version="1.0" encoding="utf-8"?>
<!-- Generator: Adobe Illustrator 21.0.2, SVG Export Plug-In . SVG Version: 6.00 Build 0)  -->
<svg version="1.1" id="Layer_1" xmlns="http://www.w3.org/2000/svg" xmlns:xlink="http://www.w3.org/1999/xlink" x="0px" y="0px"
	 viewBox="0 0 198 198" style="enable-background:new 0 0 198 198;" xml:space="preserve">
<style type="text/css">
	.st0{display:none;}
	.st1{fill:none;stroke:#981B1E;stroke-width:5;stroke-miterlimit:10;}
	.st2{fill:#FFFFFF;stroke:#000000;stroke-miterlimit:10;}
	.st3{fill:#475A84;}
	.st4{fill:none;stroke:#000000;stroke-miterlimit:10;}
	.st5{fill:#FFFFFF;}
	.st6{fill:none;stroke:#FFFFFF;stroke-width:0.25;stroke-miterlimit:10;}
	.st7{fill:#FFFFFF;stroke:#981B1E;stroke-miterlimit:10;}
	.st8{fill:none;stroke:#981B1E;stroke-width:2;stroke-miterlimit:10;}
	.st9{stroke:#000000;stroke-miterlimit:10;}
	.st10{fill:#981B1E;}
	.st11{enable-background:new    ;}
</style>
<g id="Layer_2" class="st0">
	
		<image style="display:inline;overflow:visible;enable-background:new    ;" width="130" height="183" xlink:href="2BE14FCF.png"  transform="matrix(1 0 0 1 39.6875 5.15)">
	</image>
</g>
<g id="Layer_1_1_">
	<path class="st1" d="M152.8,106.3c0,29-23.5,52.5-52.5,52.5s-52.5-23.5-52.5-52.5s23.5-52.5,52.5-52.5S152.8,77.3,152.8,106.3z"/>
	<path class="st2" d="M107.1,36.6c-5.2,0-10.4,0-15.7,0c-0.5,11.9-1,23.8-1.5,35.8c6.1-0.1,12.1-0.1,18.2-0.2
		C107.8,60.3,107.5,48.4,107.1,36.6z"/>
	<path class="st3" d="M72.8,84.4c0.9-1.2,1.8-2.4,2.8-3.7c-3.3-2-6.5-4-9.8-6C68.1,77.9,70.5,81.2,72.8,84.4z"/>
	<path class="st3" d="M123.5,81.1c1.2,0.9,2.4,1.8,3.7,2.8c2-3.3,4-6.5,6-9.8C129.9,76.4,126.7,78.7,123.5,81.1z"/>
	<path class="st3" d="M126.1,128.8c-0.9,1.2-1.8,2.4-2.8,3.7c3.3,2,6.5,4,9.8,6C130.7,135.3,128.4,132.1,126.1,128.8z"/>
	<path class="st3" d="M75.8,131.2c-1.2-0.9-2.4-1.8-3.7-2.8c-2,3.3-4,6.5-6,9.8C69.3,135.8,72.5,133.5,75.8,131.2z"/>
	<path class="st2" d="M107.5,138.6c-5.5-0.4-10.9-0.8-16.4-1.3c2.8,14.9,5.5,29.8,8.3,44.7C102,167.6,104.7,153.1,107.5,138.6z"/>
	<path class="st3" d="M107.5,138.6c-2.7,0.2-5.5,0.5-8.2,0.7c0,13.3,0,26.6,0.1,40C102,165.8,104.7,152.2,107.5,138.6z"/>
	<path class="st4" d="M156.1,119.3c-7-0.3-14.1-0.6-21.1-0.9c-5.1,15-19.3,25.1-35.1,25.1s-30-10-35.3-25
		c-6.7,0.3-13.5,0.5-20.2,0.8c1-1.4,4.2-6.3,3.8-13.1c-0.3-5.4-2.7-9.2-3.8-10.7c6.5,0.5,13.1,1.1,19.6,1.6
		C68.2,81,82.7,69.6,99.3,69.5c16.7-0.2,31.5,11.1,35.9,27.3c7-0.3,14.1-0.5,21.1-0.8c-1.1,1.7-3.3,5.6-3.5,11
		C152.6,113.1,155.1,117.6,156.1,119.3z"/>
	<path class="st5" d="M156.4,118.8c-7.2-0.3-14.5-0.6-21.7-0.9c-5,14.9-19,25.1-34.8,25.1S70,132.9,65,118
		c-6.9,0.3-13.9,0.5-20.8,0.8c0-7.6,0-15.2,0-22.8c6.8,0.5,13.5,1.1,20.3,1.6C68.5,81.4,83,70,99.6,69.9c16.5,0,31.1,11.2,35.2,27.3
		c7.3-0.3,14.5-0.5,21.8-0.8C156.5,103.9,156.5,111.3,156.4,118.8z"/>
	<path class="st5" d="M25.4,84.9"/>
	<ellipse cx="104.7" cy="63.6" rx="0.6" ry="2.7"/>
	<ellipse cx="94.4" cy="53.1" rx="0.6" ry="2.7"/>
	<g>
		<path d="M104.1,32.2H93.9v-8.7c0.8-0.5,2.6-1.4,5.1-1.4s4.3,1,5,1.4C104.1,26.4,104.1,29.3,104.1,32.2z"/>
		<line class="st6" x1="99.1" y1="22.6" x2="99.1" y2="31.6"/>
		<line class="st6" x1="100.1" y1="22.7" x2="100.1" y2="31.7"/>
		<line class="st6" x1="98.1" y1="22.7" x2="98.1" y2="31.7"/>
		<line class="st6" x1="101.1" y1="22.9" x2="101.1" y2="31.9"/>
		<line class="st6" x1="97.1" y1="22.9" x2="97.1" y2="31.9"/>
		<line class="st6" x1="102.1" y1="23.1" x2="102.1" y2="32.1"/>
		<line class="st6" x1="96.1" y1="23.1" x2="96.1" y2="32.1"/>
		<line class="st6" x1="103.1" y1="23.5" x2="103.1" y2="32.5"/>
		<line class="st6" x1="95.1" y1="23.5" x2="95.1" y2="32.5"/>
		<line class="st6" x1="103.6" y1="27.1" x2="94.6" y2="27.1"/>
		<line class="st6" x1="103.6" y1="26.1" x2="94.6" y2="26.1"/>
		<line class="st6" x1="103.6" y1="25.1" x2="94.6" y2="25.1"/>
		<line class="st6" x1="103.6" y1="24.1" x2="94.6" y2="24.1"/>
		<line class="st6" x1="103.6" y1="28.1" x2="94.6" y2="28.1"/>
		<line class="st6" x1="103.6" y1="29.1" x2="94.6" y2="29.1"/>
		<line class="st6" x1="103.6" y1="30.1" x2="94.6" y2="30.1"/>
	</g>
	<g>
		<path class="st7" d="M106.7,35.1c-4.9,0-9.7,0-14.6,0c-0.4-0.6-0.8-1.3-0.6-1.9c0.6-1.9,5.3-1.9,7.6-2c2.7,0,6.9-0.1,7.7,2
			C107.1,33.9,106.9,34.6,106.7,35.1z"/>
		<line class="st8" x1="92.2" y1="32.5" x2="95.3" y2="35.6"/>
		<line class="st8" x1="106.4" y1="32.5" x2="103.3" y2="35.6"/>
		<line class="st8" x1="96.1" y1="31.4" x2="97.2" y2="35.6"/>
		<line class="st8" x1="102.5" y1="31.3" x2="101.4" y2="35.5"/>
		<line class="st8" x1="99.2" y1="31" x2="99.2" y2="35.4"/>
	</g>
	<path class="st9" d="M106.5,36.5c-4.7,0-9.4,0-14.1,0c-1.2-0.4-2.1-0.7-2-1.1c0.3-1.4,17.5-1.5,17.8,0
		C108.2,35.7,107.5,36.1,106.5,36.5z"/>
	<path class="st10" d="M104.1,23.8c-0.7-0.4-2.5-1.5-5.1-1.5s-4.4,1.1-5.1,1.5c0-0.1-0.1-0.3-0.2-0.5c-0.2-0.2-0.3-0.2-0.4-0.3
		C93,22.7,94,20.8,96,19.5c0.7-0.4,1.6-1.1,3-1.1c1.7,0,2.9,0.9,3.6,1.3c1.6,1.2,2.4,2.8,2.1,3.1c-0.1,0.1-0.3,0.1-0.4,0.3
		C104.1,23.4,104.1,23.6,104.1,23.8z"/>
	<path class="st10" d="M99.1,19.8c-0.2,0-0.3,0-0.5,0V16c0.1,0,0.2,0,0.3,0c0.5,0.3,1,0.5,1.5,0.8c-0.5,0.3-0.9,0.5-1.4,0.8
		C99.1,18.3,99.1,19,99.1,19.8z"/>
	<path class="st5" d="M107.8,42.6c-6.1,0-11.1,0-17.2,0c-0.1,2.7-0.3,5.5-0.4,8.3c6.3,0,11.4,0,17.8,0
		C107.9,48.1,108,45.4,107.8,42.6z"/>
	<g>
		<g>
			<path d="M66.9,53.1c-0.4,0.1-0.7,0.2-1,0.4c-0.4,0.3-0.7,0.6-0.9,1s-0.3,0.8-0.3,1.2s0.1,0.8,0.4,1.1c0.2,0.3,0.5,0.5,0.9,0.6
				c0.4,0.1,0.8,0.2,1.2,0.1c0.4-0.1,0.8-0.2,1.2-0.5c0.3-0.2,0.5-0.4,0.7-0.7s0.3-0.6,0.4-0.9c0.2,0,0.5,0.1,0.7,0.1
				c-0.1,0.4-0.3,0.8-0.6,1.2c-0.3,0.4-0.6,0.7-0.9,0.9c-0.5,0.3-1,0.6-1.6,0.7c-0.6,0.1-1.1,0.1-1.6-0.1s-0.9-0.4-1.3-0.9
				c-0.3-0.4-0.5-0.9-0.5-1.4s0.1-1.1,0.4-1.6s0.7-1,1.3-1.4c0.4-0.3,0.8-0.5,1.3-0.6s0.9-0.2,1.3-0.1c-0.1,0.3-0.1,0.5-0.2,0.8
				C67.6,53,67.2,53,66.9,53.1z"/>
			<path d="M72.5,51.4c0.4,0.1,0.7,0.3,0.9,0.7c0.4,0.7,0.7,1.3,1.1,2c-0.2,0.1-0.4,0.2-0.6,0.3c-0.3-0.6-0.7-1.2-1-1.9
				c-0.2-0.3-0.4-0.4-0.6-0.5c-0.3-0.1-0.6,0-0.9,0.2c-0.4,0.2-0.6,0.5-0.7,0.8c-0.1,0.3,0,0.7,0.2,1c0.3,0.5,0.6,1,0.9,1.6
				c-0.2,0.1-0.4,0.3-0.6,0.4c-0.9-1.5-1.8-2.9-2.8-4.4c0.2-0.1,0.4-0.3,0.7-0.4c0.4,0.7,0.8,1.3,1.2,2c0-0.6,0.3-1.1,1-1.5
				C71.7,51.4,72.1,51.3,72.5,51.4z"/>
			<path d="M77.4,52.6c-0.1-0.2-0.1-0.3-0.2-0.5c-0.1,0.5-0.5,0.8-1.1,1.1c-0.3,0.1-0.5,0.2-0.7,0.2s-0.4,0-0.6-0.1
				s-0.3-0.2-0.4-0.4c-0.2-0.3-0.2-0.6,0-0.9s0.5-0.6,0.9-0.8s0.8-0.4,1.2-0.6c0-0.1,0-0.1-0.1-0.2c-0.1-0.2-0.3-0.4-0.5-0.4
				c-0.2-0.1-0.5,0-0.8,0.2c-0.4,0.2-0.7,0.5-1,0.9c-0.2-0.1-0.3-0.2-0.5-0.3c0.2-0.3,0.4-0.5,0.6-0.7s0.5-0.4,0.8-0.5
				c0.5-0.2,0.9-0.3,1.3-0.2c0.4,0.1,0.6,0.3,0.8,0.7c0.3,0.7,0.7,1.5,1,2.2C77.9,52.4,77.7,52.5,77.4,52.6z M76.8,52.2
				c0.2-0.2,0.2-0.5,0.1-0.7c-0.1-0.1-0.1-0.2-0.2-0.3c-0.4,0.2-0.7,0.3-1.1,0.5c-0.3,0.1-0.5,0.3-0.6,0.4c-0.1,0.2-0.1,0.3,0,0.5
				c0.1,0.2,0.2,0.3,0.4,0.3c0.2,0,0.4,0,0.7-0.1C76.4,52.6,76.6,52.4,76.8,52.2z"/>
			<path d="M80.9,47.7c0.4,0.1,0.6,0.4,0.7,0.9c0.2,0.7,0.5,1.4,0.7,2.2c-0.2,0.1-0.4,0.2-0.7,0.2c-0.2-0.7-0.5-1.3-0.7-2
				c-0.1-0.3-0.3-0.5-0.5-0.6s-0.5-0.1-0.9,0s-0.6,0.4-0.7,0.6c-0.1,0.3-0.2,0.6-0.1,0.9c0.2,0.6,0.5,1.2,0.7,1.8
				c-0.2,0.1-0.4,0.2-0.7,0.3c-0.5-1.1-1-2.3-1.4-3.4c0.2-0.1,0.5-0.2,0.7-0.3c0.1,0.2,0.2,0.5,0.3,0.7c0.1-0.6,0.5-1,1.2-1.3
				C80.1,47.5,80.5,47.5,80.9,47.7z"/>
			<path d="M85.1,49.6c-0.2,0.3-0.5,0.4-0.8,0.5s-0.6,0.1-0.8,0c-0.2-0.1-0.4-0.3-0.5-0.7c-0.2-0.7-0.4-1.3-0.6-2
				c-0.2,0.1-0.4,0.1-0.6,0.2c-0.1-0.2-0.1-0.3-0.2-0.5c0.2-0.1,0.4-0.1,0.6-0.2c-0.1-0.3-0.2-0.6-0.3-0.9c0.2-0.1,0.5-0.2,0.7-0.2
				c0.1,0.3,0.2,0.6,0.3,0.9c0.4-0.1,0.8-0.3,1.2-0.4c0,0.2,0.1,0.3,0.1,0.5c-0.4,0.1-0.8,0.2-1.2,0.4c0.2,0.6,0.4,1.2,0.6,1.8
				c0.1,0.2,0.1,0.3,0.2,0.4s0.2,0.1,0.4,0s0.4-0.2,0.6-0.3C84.9,49.3,85,49.4,85.1,49.6z"/>
			<path d="M86,45.9c0.2-0.2,0.5-0.3,0.8-0.4c0,0.2,0.1,0.4,0.1,0.6c-0.4,0.1-0.7,0.3-0.9,0.5c-0.2,0.3-0.3,0.6-0.2,0.9
				c0.2,0.6,0.3,1.3,0.5,1.9c-0.2,0.1-0.5,0.1-0.7,0.2c-0.3-1.2-0.7-2.4-1-3.6c0.2-0.1,0.5-0.1,0.7-0.2c0.1,0.3,0.1,0.5,0.2,0.8
				C85.7,46.4,85.8,46.1,86,45.9z"/>
			<path d="M89.1,50c-0.2,0.2-0.4,0.3-0.7,0.4c-0.2,0-0.3,0-0.5,0c-0.1,0-0.3-0.1-0.4-0.1c0.1-0.2,0.1-0.4,0.2-0.6
				c0.2,0.1,0.4,0.1,0.6,0.1c0.3-0.1,0.5-0.3,0.6-0.6c0-0.1,0.1-0.2,0.1-0.4c-0.8-1.1-1.6-2.2-2.5-3.2c0.3-0.1,0.5-0.1,0.8-0.2
				c0.7,0.9,1.3,1.7,1.9,2.6c0.2-1,0.4-2.1,0.7-3.1c0.3,0,0.5-0.1,0.8-0.1c-0.4,1.5-0.8,3-1.1,4.5C89.4,49.6,89.3,49.9,89.1,50z"/>
			<path d="M94.2,42.4c0.3,0,0.6-0.1,0.9-0.1c0.1,1.9,0.3,3.7,0.5,5.6c-0.3,0-0.5,0-0.8,0.1C94.5,46.2,94.3,44.3,94.2,42.4z"/>
			<path d="M98.1,44.7c-0.2,0-0.4-0.1-0.6-0.1s-0.4,0.1-0.5,0.1c-0.1,0.1-0.2,0.2-0.2,0.3s0.1,0.3,0.2,0.3c0.2,0.1,0.4,0.1,0.7,0.2
				c0.3,0.1,0.5,0.1,0.7,0.2s0.3,0.2,0.5,0.3c0.1,0.1,0.2,0.3,0.2,0.6s-0.1,0.6-0.4,0.8s-0.6,0.3-1,0.3c-0.3,0-0.6,0-0.9-0.1
				s-0.5-0.2-0.7-0.3c0.1-0.2,0.2-0.3,0.2-0.5c0.2,0.1,0.4,0.2,0.6,0.3s0.5,0.1,0.7,0.1s0.4-0.1,0.6-0.1c0.1-0.1,0.2-0.2,0.2-0.4
				s-0.1-0.3-0.2-0.4c-0.2-0.1-0.4-0.2-0.7-0.2C97.2,46,97,46,96.8,45.9s-0.3-0.2-0.5-0.3c-0.1-0.1-0.2-0.3-0.2-0.5
				c0-0.3,0.1-0.6,0.4-0.8s0.6-0.3,1.1-0.3c0.3,0,0.5,0,0.8,0.1c0.2,0.1,0.5,0.1,0.6,0.2c-0.1,0.2-0.2,0.3-0.3,0.5
				C98.5,44.8,98.3,44.7,98.1,44.7z"/>
			<path d="M99.6,42.6c0.3,0,0.5,0,0.8,0c0,1.7,0,3.5,0,5.2c-0.2,0-0.5,0-0.7,0C99.6,46,99.6,44.3,99.6,42.6z"/>
			<path d="M103.8,47.9c0-0.2,0-0.3,0-0.5c-0.3,0.3-0.8,0.5-1.4,0.5c-0.3,0-0.5-0.1-0.7-0.2s-0.4-0.2-0.5-0.4s-0.2-0.4-0.2-0.6
				c0-0.3,0.1-0.6,0.4-0.8s0.7-0.3,1.1-0.3s0.9,0,1.3,0.1c0-0.1,0-0.1,0-0.2c0-0.3-0.1-0.5-0.2-0.6c-0.2-0.2-0.4-0.2-0.8-0.3
				c-0.4,0-0.9,0.1-1.3,0.3c-0.1-0.2-0.2-0.3-0.3-0.5c0.3-0.2,0.6-0.3,0.9-0.3c0.3-0.1,0.6-0.1,0.9-0.1c0.5,0,0.9,0.2,1.2,0.4
				c0.3,0.2,0.4,0.6,0.4,1c-0.1,0.8-0.1,1.6-0.2,2.4C104.2,47.9,104,47.9,103.8,47.9z M103.4,47.2c0.2-0.1,0.4-0.3,0.5-0.6
				c0-0.1,0-0.2,0-0.4c-0.4,0-0.8-0.1-1.2-0.1c-0.3,0-0.6,0-0.7,0.1c-0.2,0.1-0.2,0.2-0.2,0.4s0.1,0.3,0.2,0.5
				c0.2,0.1,0.4,0.2,0.6,0.2C102.9,47.3,103.1,47.3,103.4,47.2z"/>
			<path d="M109.1,45.2c0.2,0.3,0.3,0.7,0.2,1.1c-0.1,0.8-0.3,1.5-0.4,2.3c-0.2,0-0.5-0.1-0.7-0.1c0.1-0.7,0.2-1.4,0.3-2.1
				c0-0.3,0-0.6-0.2-0.8s-0.4-0.3-0.8-0.4c-0.4,0-0.7,0-0.9,0.2c-0.3,0.2-0.4,0.4-0.5,0.8c-0.1,0.7-0.1,1.3-0.2,2
				c-0.2,0-0.5-0.1-0.7-0.1c0.1-1.2,0.2-2.5,0.4-3.7c0.2,0,0.5,0.1,0.7,0.1c0,0.3-0.1,0.5-0.1,0.8c0.3-0.5,0.9-0.7,1.7-0.6
				C108.5,44.7,108.8,44.9,109.1,45.2z"/>
			<path d="M114.7,44.5c-0.4,1.7-0.9,3.4-1.3,5c-0.2-0.1-0.5-0.1-0.7-0.2c0.1-0.2,0.1-0.5,0.2-0.7c-0.2,0.2-0.4,0.3-0.7,0.4
				c-0.3,0.1-0.6,0.1-0.9,0c-0.4-0.1-0.7-0.2-0.9-0.4c-0.3-0.2-0.4-0.5-0.5-0.8s-0.1-0.6-0.1-1c0.1-0.4,0.2-0.7,0.4-0.9
				c0.2-0.2,0.5-0.4,0.8-0.5s0.7-0.1,1.1,0s0.7,0.2,0.9,0.4c0.2,0.2,0.4,0.4,0.5,0.7c0.2-0.7,0.4-1.4,0.5-2.2
				C114.2,44.3,114.4,44.4,114.7,44.5z M112.2,48.5c0.2-0.1,0.4-0.2,0.6-0.3c0.2-0.2,0.3-0.4,0.3-0.6c0.1-0.2,0.1-0.5,0-0.7
				s-0.2-0.4-0.4-0.6c-0.2-0.2-0.4-0.3-0.7-0.3c-0.3-0.1-0.5-0.1-0.8,0c-0.2,0.1-0.4,0.2-0.6,0.4s-0.3,0.4-0.3,0.6s0,0.5,0,0.7
				c0.1,0.2,0.2,0.4,0.4,0.6c0.2,0.2,0.4,0.3,0.7,0.3C111.8,48.6,112,48.6,112.2,48.5z"/>
			<path d="M118.5,45.2c1.7,0.5,3.3,1.2,4.9,1.9c-0.1,0.2-0.2,0.4-0.3,0.6c-0.7-0.3-1.3-0.6-2-0.8c-0.6,1.5-1.2,3-1.8,4.6
				c-0.3-0.1-0.5-0.2-0.8-0.3c0.6-1.5,1.1-3.1,1.7-4.6c-0.7-0.2-1.3-0.5-2-0.7C118.4,45.6,118.5,45.4,118.5,45.2z"/>
			<path d="M125.5,50.4c0.2,0.3,0.4,0.6,0.4,0.9s0,0.7-0.2,1s-0.4,0.6-0.7,0.7c-0.3,0.2-0.6,0.3-1,0.3s-0.7-0.1-1.1-0.3
				s-0.7-0.4-0.9-0.7c-0.2-0.3-0.4-0.6-0.4-0.9c-0.1-0.3,0-0.7,0.1-1s0.4-0.6,0.6-0.8c0.3-0.2,0.6-0.3,1-0.3s0.8,0.1,1.1,0.3
				C125,49.8,125.3,50.1,125.5,50.4z M123.6,50c-0.2,0-0.5,0.1-0.7,0.2s-0.3,0.3-0.4,0.5s-0.1,0.5-0.1,0.7s0.1,0.4,0.3,0.6
				c0.1,0.2,0.3,0.3,0.6,0.5c0.2,0.1,0.5,0.2,0.7,0.2s0.5-0.1,0.6-0.2c0.2-0.1,0.4-0.3,0.5-0.5s0.2-0.5,0.1-0.7
				c0-0.2-0.1-0.4-0.2-0.6s-0.3-0.4-0.6-0.5C124.1,50,123.9,50,123.6,50z"/>
			<path d="M130.5,52.9c-0.7,1-1.3,2.1-2,3.1c-0.2-0.1-0.4-0.3-0.6-0.4c0.1-0.2,0.3-0.4,0.4-0.7c-0.5,0.3-1.1,0.3-1.7-0.1
				c-0.4-0.2-0.7-0.5-0.8-0.9c-0.1-0.4-0.1-0.7,0.1-1.1c0.4-0.7,0.7-1.3,1.1-2c0.2,0.1,0.5,0.2,0.7,0.4c-0.3,0.6-0.7,1.2-1,1.9
				c-0.2,0.3-0.2,0.5-0.1,0.8c0.1,0.2,0.3,0.4,0.6,0.6c0.3,0.2,0.7,0.2,1,0.2c0.3-0.1,0.6-0.3,0.8-0.6c0.3-0.5,0.6-1,0.9-1.6
				C130,52.6,130.2,52.7,130.5,52.9z"/>
			<path d="M132.4,54.4c0.3,0,0.6,0.2,0.9,0.4c-0.1,0.2-0.2,0.3-0.4,0.5c-0.4-0.3-0.7-0.4-1.1-0.4c-0.3,0-0.6,0.2-0.9,0.4
				c-0.4,0.5-0.7,1.1-1.1,1.6c-0.2-0.1-0.4-0.3-0.6-0.4c0.7-1,1.4-2.1,2-3.1c0.2,0.1,0.4,0.3,0.6,0.4c-0.1,0.2-0.3,0.4-0.4,0.7
				C131.8,54.4,132.1,54.3,132.4,54.4z"/>
			<path d="M134.7,56.6c-0.1-0.2-0.3-0.3-0.4-0.4c-0.2-0.1-0.4-0.2-0.5-0.2c-0.2,0-0.3,0-0.4,0.1c-0.1,0.1-0.1,0.3,0,0.4
				c0.1,0.2,0.2,0.4,0.4,0.6c0.2,0.2,0.3,0.4,0.4,0.6c0.1,0.2,0.2,0.4,0.2,0.6s-0.1,0.4-0.2,0.6c-0.2,0.3-0.5,0.4-0.9,0.3
				c-0.3,0-0.7-0.2-1-0.5c-0.2-0.2-0.5-0.4-0.6-0.6c-0.2-0.2-0.3-0.5-0.4-0.7c0.2-0.1,0.3-0.2,0.5-0.2c0.1,0.2,0.2,0.4,0.3,0.7
				c0.2,0.2,0.3,0.4,0.5,0.5s0.4,0.2,0.5,0.3c0.2,0,0.3,0,0.4-0.1c0.1-0.1,0.1-0.3,0-0.4c-0.1-0.2-0.2-0.4-0.4-0.6
				c-0.2-0.2-0.3-0.4-0.4-0.6c-0.1-0.2-0.2-0.3-0.2-0.5s0-0.4,0.2-0.6c0.2-0.3,0.5-0.4,0.8-0.4c0.3,0,0.7,0.2,1.1,0.5
				c0.2,0.2,0.4,0.3,0.6,0.6c0.2,0.2,0.3,0.4,0.4,0.6c-0.2,0.1-0.4,0.1-0.5,0.2C135,56.9,134.8,56.7,134.7,56.6z"/>
		</g>
	</g>
	<g class="st11">
		<path class="st10" d="M76.8,82.9l3.8,7.9l3.8-7.9h2.3v11.9h-1.8v-8.9l-3.7,7.6h-1.3l-3.7-7.6v8.9h-1.8V82.9H76.8z"/>
	</g>
	<g class="st11">
		<path class="st10" d="M94.1,94.8v-1c-0.6,0.8-1.6,1.1-2.8,1.1c-1.8,0-2.9-1.1-2.9-2.6c0-1.6,1.1-2.5,3.2-2.6h2.5v-0.3
			c0-1.1-0.7-1.7-2-1.7c-0.8,0-1.6,0.3-2.5,0.9l-0.7-1.3c1.2-0.7,2-1.1,3.6-1.1c2.1,0,3.4,1.1,3.4,3v5.6H94.1z M94.1,91.8V91h-2.3
			c-1.2,0-1.7,0.3-1.7,1.1c0,0.8,0.6,1.3,1.6,1.3C93,93.4,94,92.8,94.1,91.8z"/>
		<path class="st10" d="M102.9,86.2V88c-1.7-0.1-2.7,0.9-2.9,2.4v4.4h-1.8v-8.5h1.8V88C100.6,86.8,101.6,86.2,102.9,86.2z"/>
		<path class="st10" d="M106.4,83.9c0,0.6-0.5,1.1-1.1,1.1s-1.1-0.5-1.1-1.1c0-0.7,0.5-1.1,1.1-1.1S106.4,83.2,106.4,83.9z
			 M106.2,86.3v8.5h-1.8v-8.5H106.2z"/>
		<path class="st10" d="M116.9,89.5v5.3h-1.8V90c0-1.3-0.8-2.1-2-2.1c-1.4,0-2.2,1-2.4,2.3v4.5h-1.8v-8.4h1.8v1.6
			c0.6-1.2,1.7-1.7,3.1-1.7C115.7,86.2,116.9,87.5,116.9,89.5z"/>
		<path class="st10" d="M126.6,91.3h-6.3c0.3,1.3,1.3,2.1,2.6,2.1c0.9,0,1.7-0.4,2.4-1l1,1c-0.8,0.9-2,1.4-3.5,1.4
			c-2.6,0-4.3-1.7-4.3-4.3c0-2.6,1.7-4.3,4.2-4.3C125.6,86.2,126.8,88.2,126.6,91.3z M125.1,89.9c-0.1-1.4-1-2.2-2.3-2.2
			s-2.3,0.8-2.4,2.2H125.1z"/>
	</g>
	<g class="st11">
		<path class="st10" d="M70.8,99.9v5.2H77v-5.2h2v11.9h-2v-4.9h-6.2v4.9h-2V99.9H70.8z"/>
	</g>
	<g class="st11">
		<path class="st10" d="M88.3,108.3H82c0.3,1.3,1.3,2.1,2.6,2.1c0.9,0,1.7-0.4,2.4-1l1,1c-0.8,0.9-2,1.4-3.5,1.4
			c-2.6,0-4.3-1.7-4.3-4.3c0-2.6,1.7-4.3,4.2-4.3C87.3,103.2,88.5,105.2,88.3,108.3z M86.7,106.9c-0.1-1.4-1-2.2-2.3-2.2
			s-2.3,0.8-2.4,2.2H86.7z"/>
		<path class="st10" d="M94.8,103.2v1.8c-1.7-0.1-2.7,0.9-2.9,2.4v4.5h-1.8v-8.6h1.8v1.7C92.5,103.8,93.5,103.2,94.8,103.2z"/>
		<path class="st10" d="M98.3,100.9c0,0.6-0.5,1.1-1.1,1.1s-1.1-0.5-1.1-1.1c0-0.7,0.5-1.1,1.1-1.1S98.3,100.2,98.3,100.9z
			 M98.1,103.3v8.5h-1.8v-8.5H98.1z"/>
		<path class="st10" d="M105.5,111.3c-0.7,0.4-1.3,0.6-2.1,0.6c-1.3,0-2.3-0.7-2.3-2.5V105h-1.2v-1.4h1.2v-2.3h1.8v2.3h2.5v1.4h-2.5
			v4.1c0,0.9,0.3,1.2,0.9,1.2c0.4,0,0.8-0.1,1.3-0.4L105.5,111.3z"/>
		<path class="st10" d="M112.2,111.8v-1c-0.6,0.8-1.6,1.1-2.8,1.1c-1.8,0-2.9-1.1-2.9-2.6c0-1.6,1.1-2.5,3.2-2.6h2.5v-0.3
			c0-1.1-0.7-1.7-2-1.7c-0.8,0-1.6,0.3-2.5,0.9l-0.7-1.3c1.2-0.7,2-1.1,3.6-1.1c2.1,0,3.4,1.1,3.4,3v5.6H112.2z M112.2,108.8V108
			h-2.3c-1.2,0-1.7,0.3-1.7,1.1c0,0.8,0.6,1.3,1.6,1.3C111.1,110.4,112.1,109.8,112.2,108.8z"/>
		<path class="st10" d="M123.9,103.3v7.7c0,2.4-1.7,4-4.3,4c-1.3,0-2.4-0.4-3.5-1.1l0.8-1.3c0.8,0.6,1.6,0.9,2.6,0.9
			c1.6,0,2.6-0.9,2.6-2.4V110c-0.6,0.9-1.5,1.4-2.8,1.4c-2.3,0-3.8-1.7-3.8-4.1s1.5-4,3.7-4c1.3,0,2.2,0.5,2.8,1.4v-1.4H123.9z
			 M122.1,107.3c0-1.5-1-2.6-2.4-2.6s-2.4,1.1-2.4,2.6s1,2.6,2.4,2.6C121.1,110,122.1,108.9,122.1,107.3z"/>
		<path class="st10" d="M133.7,108.3h-6.3c0.3,1.3,1.3,2.1,2.6,2.1c0.9,0,1.7-0.4,2.4-1l1,1c-0.8,0.9-2,1.4-3.5,1.4
			c-2.6,0-4.3-1.7-4.3-4.3c0-2.6,1.7-4.3,4.2-4.3C132.8,103.2,133.9,105.2,133.7,108.3z M132.2,106.9c-0.1-1.4-1-2.2-2.3-2.2
			c-1.3,0-2.3,0.8-2.4,2.2H132.2z"/>
	</g>
	<g class="st11">
		<path class="st10" d="M77.3,118.7c-1.1,0-1.9,0.4-1.9,1.2c0,2.6,6.3,1.2,6.3,5.5c0,2.1-1.8,3.4-4.4,3.4c-1.8,0-3.6-0.8-4.8-1.9
			l0.9-1.7c1.2,1.1,2.7,1.7,3.9,1.7c1.4,0,2.2-0.5,2.2-1.4c0-2.7-6.3-1.2-6.3-5.4c0-2,1.7-3.3,4.2-3.3c1.5,0,3,0.5,4.1,1.2l-0.8,1.8
			C79.4,119,78.2,118.7,77.3,118.7z"/>
	</g>
	<g class="st11">
		<path class="st10" d="M90.9,124.6c0,2.6-1.8,4.3-4.3,4.3c-2.6,0-4.4-1.8-4.4-4.3c0-2.6,1.8-4.3,4.4-4.3
			C89.1,120.2,90.9,122,90.9,124.6z M84,124.6c0,1.6,1.1,2.8,2.6,2.8s2.5-1.1,2.5-2.8c0-1.6-1.1-2.8-2.5-2.8
			C85.1,121.8,84,122.9,84,124.6z"/>
		<path class="st10" d="M96.3,121.9c-1.4,0-2.5,1.1-2.5,2.7s1,2.7,2.5,2.7c1.1,0,1.9-0.4,2.5-1l1,1c-0.8,1-2,1.6-3.5,1.6
			c-2.5,0-4.2-1.7-4.2-4.3c0-2.6,1.7-4.3,4.2-4.3c1.5,0,2.7,0.5,3.5,1.4l-1,1.2C98.1,122.2,97.3,121.8,96.3,121.9z"/>
		<path class="st10" d="M103.6,117.9c0,0.6-0.5,1.1-1.1,1.1s-1.1-0.5-1.1-1.1c0-0.7,0.5-1.1,1.1-1.1S103.6,117.2,103.6,117.9z
			 M103.4,120.3v8.5h-1.8v-8.5H103.4z"/>
		<path class="st10" d="M113.4,125.3h-6.3c0.3,1.3,1.3,2.1,2.6,2.1c0.9,0,1.7-0.4,2.4-1l1,1c-0.8,0.9-2,1.4-3.5,1.4
			c-2.6,0-4.3-1.7-4.3-4.3c0-2.6,1.7-4.3,4.2-4.3C112.5,120.2,113.6,122.2,113.4,125.3z M111.9,123.9c-0.1-1.4-1-2.2-2.3-2.2
			s-2.3,0.8-2.4,2.2H111.9z"/>
		<path class="st10" d="M120,128.3c-0.7,0.4-1.3,0.6-2.1,0.6c-1.3,0-2.3-0.7-2.3-2.5V122h-1.2v-1.4h1.2v-2.3h1.8v2.3h2.5v1.4h-2.5
			v4.1c0,0.9,0.3,1.2,0.9,1.2c0.4,0,0.8-0.1,1.3-0.4L120,128.3z"/>
		<path class="st10" d="M122.3,132c-0.8,0-1.3-0.2-1.9-0.7l0.8-1.4c0.4,0.3,0.7,0.4,1.1,0.4c0.5,0,1-0.3,1.3-0.9l0.3-0.6l-3.5-8.4
			h1.9l2.5,6.5l2.3-6.5h1.8l-3.8,9.7C124.4,131.3,123.5,132,122.3,132z"/>
	</g>
</g>
</svg>
